<?xml version="1.0" standalone="no"?>
<!DOCTYPE svg PUBLIC "-//W3C//DTD SVG 20010904//EN"
 "http://www.w3.org/TR/2001/REC-SVG-20010904/DTD/svg10.dtd">
<svg version="1.0" xmlns="http://www.w3.org/2000/svg"
 width="500.000000pt" height="500.000000pt" viewBox="0 0 500.000000 500.000000"
 preserveAspectRatio="xMidYMid meet">

<g transform="translate(0.000000,500.000000) scale(0.100000,-0.100000)"
fill="#000000" stroke="none">
<path d="M2315 2978 c-113 -41 -235 -181 -235 -271 0 -44 25 -92 63 -122 39
-29 114 -55 156 -54 16 0 3 7 -35 18 -171 49 -204 168 -84 304 70 79 175 136
213 115 54 -28 71 -223 42 -463 -29 -244 -30 -258 -15 -253 8 2 37 78 65 169
63 200 94 273 152 362 43 65 78 96 91 82 8 -8 9 -237 2 -310 -4 -41 -2 -50 12
-53 12 -2 29 15 54 55 54 85 125 173 139 173 18 0 22 -45 15 -157 -11 -159 7
-184 83 -114 24 23 52 41 62 41 10 0 27 8 37 17 10 9 37 17 61 18 23 1 52 6
64 10 19 6 22 3 25 -32 2 -31 7 -39 27 -41 13 -2 36 6 52 17 37 27 39 27 39
-9 0 -41 23 -39 50 6 21 33 23 34 41 18 16 -15 24 -15 57 -5 39 12 89 48 79
57 -3 3 -23 -6 -44 -20 -58 -40 -88 -33 -63 14 19 35 -8 32 -50 -6 l-40 -36 0
28 c0 16 12 67 26 114 44 148 43 300 -1 300 -27 0 -35 -40 -45 -222 l-10 -183
-30 -27 c-17 -16 -38 -28 -47 -28 -13 0 -15 8 -9 46 6 46 6 46 -20 40 -21 -6
-25 -4 -22 13 5 34 -16 28 -27 -7 -9 -33 -11 -33 -51 -27 -32 4 -46 1 -67 -15
-15 -12 -27 -18 -27 -13 0 16 32 55 54 63 20 8 19 9 -6 9 -20 1 -35 -9 -55
-35 -48 -63 -95 -114 -105 -114 -5 0 -8 57 -6 133 2 102 0 138 -11 150 -31 38
-77 10 -148 -91 -25 -37 -50 -71 -53 -75 -4 -5 -5 54 -3 130 3 103 1 144 -9
163 -46 86 -156 -32 -243 -262 l-43 -111 2 194 c1 166 -2 201 -17 242 -10 26
-27 52 -37 57 -24 13 -66 12 -105 -2z m1142 -170 c-3 -57 -11 -114 -16 -128
-9 -19 -10 -1 -6 75 6 107 13 155 22 155 3 0 3 -46 0 -102z"/>
<path d="M1980 2595 c-6 -14 -10 -30 -10 -35 0 -5 -12 -13 -27 -16 -20 -5 -30
-2 -44 14 -23 30 -41 28 -67 -8 -13 -16 -27 -30 -32 -30 -6 0 -10 14 -10 30 0
33 -11 38 -30 14 -20 -23 -74 -15 -78 13 -3 22 -27 37 -43 27 -5 -3 -4 -14 2
-26 14 -25 -3 -68 -26 -68 -18 0 -20 41 -5 71 19 35 -11 22 -47 -21 -19 -22
-39 -40 -44 -40 -5 0 -9 20 -9 45 0 25 -4 45 -9 45 -5 0 -21 -16 -35 -35 -31
-40 -46 -38 -46 6 0 33 -15 39 -25 9 -14 -44 41 -80 73 -48 9 9 12 4 12 -23 0
-23 -10 -49 -29 -75 -37 -50 -87 -150 -95 -189 -9 -43 12 -70 48 -61 36 9 70
83 90 194 11 66 20 90 42 113 27 28 28 28 41 9 19 -27 55 -25 81 3 27 28 90
30 116 4 23 -23 35 -21 66 8 24 23 28 24 40 10 16 -19 57 -19 90 0 36 21 40
19 40 -20 0 -39 15 -51 53 -41 26 6 87 60 87 77 0 6 -18 -5 -40 -25 -57 -51
-74 -49 -66 10 6 46 6 46 -20 40 -23 -6 -26 -4 -21 13 8 31 -12 36 -23 6z
m-525 -262 c-31 -106 -65 -158 -65 -98 0 32 34 129 57 164 25 38 29 7 8 -66z"/>
<path d="M2078 1983 c7 -3 16 -2 19 1 4 3 -2 6 -13 5 -11 0 -14 -3 -6 -6z"/>
<path d="M2194 1946 c2 -92 70 -92 72 0 l2 49 -7 -50 c-5 -45 -9 -50 -31 -50
-22 0 -26 5 -31 50 l-7 50 2 -49z"/>
<path d="M2332 1933 l2 -58 3 52 c3 38 8 53 21 56 12 3 11 5 -5 6 -22 1 -23
-3 -21 -56z"/>
<path d="M2548 1983 c7 -3 16 -2 19 1 4 3 -2 6 -13 5 -11 0 -14 -3 -6 -6z"/>
<path d="M2638 1983 c12 -2 32 -2 45 0 12 2 2 4 -23 4 -25 0 -35 -2 -22 -4z"/>
<path d="M2800 1977 c20 -11 25 -20 24 -51 -1 -25 2 -33 7 -25 22 35 -2 89
-39 89 -12 0 -9 -4 8 -13z"/>
<path d="M2900 1980 c0 -5 7 -7 15 -4 8 4 15 8 15 10 0 2 -7 4 -15 4 -8 0 -15
-4 -15 -10z"/>
<path d="M3020 1935 l0 -55 33 1 c30 2 30 2 5 6 -35 5 -39 40 -5 46 l22 4 -22
2 c-16 1 -23 7 -23 20 0 12 8 21 23 24 19 4 18 4 -5 6 -27 1 -28 0 -28 -54z"/>
<path d="M1935 1953 c8 -18 15 -42 16 -55 1 -19 2 -18 8 7 4 17 13 41 20 55
l12 25 -19 -23 -18 -24 -17 24 c-17 22 -17 22 -2 -9z"/>
<path d="M2046 1965 c-3 -9 -6 -26 -5 -38 1 -14 4 -9 9 13 9 37 7 52 -4 25z"/>
<path d="M2116 1967 c3 -10 9 -15 12 -12 3 3 0 11 -7 18 -10 9 -11 8 -5 -6z"/>
<path d="M2755 1969 c-4 -6 -5 -12 -2 -15 2 -3 7 2 10 11 7 17 1 20 -8 4z"/>
<path d="M2946 1965 c4 -8 1 -21 -5 -29 -9 -10 -6 -19 9 -37 l21 -24 -16 27
c-11 17 -13 28 -6 33 14 8 14 45 1 45 -5 0 -7 -7 -4 -15z"/>
<path d="M2382 1948 c-15 -15 -16 -35 -2 -43 6 -3 7 1 4 10 -4 8 -1 22 6 30
15 18 9 20 -8 3z"/>
<path d="M2558 1922 c9 -10 19 -17 21 -16 6 5 -20 34 -30 34 -5 0 -1 -8 9 -18z"/>
<path d="M2117 1906 c-3 -8 -16 -16 -29 -19 -21 -4 -21 -4 -2 -6 21 -1 52 24
42 35 -3 3 -8 -2 -11 -10z"/>
<path d="M2759 1898 c7 -10 23 -17 35 -17 20 1 20 2 1 6 -11 3 -27 10 -35 17
-13 10 -13 9 -1 -6z"/>
<path d="M2528 1883 c6 -2 18 -2 25 0 6 3 1 5 -13 5 -14 0 -19 -2 -12 -5z"/>
</g>
</svg>
